<?xml version="1.0" encoding="UTF-8" standalone="no"?>
<svg
   xmlns:dc="http://purl.org/dc/elements/1.1/"
   xmlns:cc="http://creativecommons.org/ns#"
   xmlns:rdf="http://www.w3.org/1999/02/22-rdf-syntax-ns#"
   xmlns:svg="http://www.w3.org/2000/svg"
   xmlns="http://www.w3.org/2000/svg"
   id="svg8"
   version="1.1"
   viewBox="0 0 145.52084 145.52083"
   height="550"
   width="550">
  <defs
     id="defs2" />
  <metadata
     id="metadata5">
    <rdf:RDF>
      <cc:Work
         rdf:about="">
        <dc:format>image/svg+xml</dc:format>
        <dc:type
           rdf:resource="http://purl.org/dc/dcmitype/StillImage" />
        <dc:title></dc:title>
      </cc:Work>
    </rdf:RDF>
  </metadata>
  <g
     transform="matrix(0.99636926,0,0,0.9963685,2.9645214,-158.38374)"
     id="layer1"
     style="fill:#000000;fill-opacity:1">
    <g
       transform="translate(166.57079,48.431183)"
       id="use890"
       style="fill:#000000;fill-opacity:1">
      <path
         id="path893"
         d="m -133.69261,118.54212 c -0.41846,-8e-4 -0.82732,0.007 -1.202,0.0238 -3.74536,0.16657 -4.84399,0.73157 -8.57363,4.4111 -1.58003,1.55879 -3.77122,3.84962 -4.86947,5.09064 -9.53145,10.77069 -11.23008,12.09573 -17.21084,13.42502 -0.803,0.17849 -2.08026,0.0838 -1.78826,0.10503 0.29201,0.0212 2.40549,0.45882 3.64654,0.6572 4.42449,0.70724 9.11661,0.45941 12.74186,-0.67231 5.91781,-1.84743 10.44777,-5.33781 20.31194,-15.65227 2.51889,-2.63389 3.54238,-3.50999 4.88549,-4.18115 0.9345,-0.46698 1.91189,-0.84904 2.17196,-0.84904 0.26008,0 1.50626,-0.0994 1.58126,-0.22066 0.15053,-0.24355 -5.48135,-1.46671 -8.3457,-1.9358 -0.75338,-0.12338 -2.09377,-0.19942 -3.34915,-0.20154 z m 87.880419,0.99373 -9.780796,3.22255 H -66.26679 v -0.78825 h -18.449122 v 0.78825 h -28.147998 l -3.57033,7.17181 h 31.71845 c 0.0452,15.79492 0.09023,31.71824 0.13542,47.51316 h -10.62157 v -10.313 -10.31307 l 2.198575,-7.64914 -11.302925,-8.40001 -11.51816,8.2765 2.29805,7.82536 0.004,10.28671 0.004,10.28671 h -5.30562 l -3.72432,7.43262 91.189784,-0.008 -11.13937,-10.53011 -9.284705,3.10576 h -14.484387 v -11.94604 -11.94553 h 14.390335 14.390336 l -1.183389,-1.21698 c -0.650915,-0.66924 -3.062055,-3.00958 -5.357813,-5.20071 l -4.173905,-3.98374 -8.93273,2.96835 h -9.132318 v -8.09413 l -2.34e-4,-8.09471 h 31.413302 l -5.479767,-5.26568 z m -75.068279,13.01782 c -4.15435,0.0113 -8.26587,0.50343 -10.41177,1.34927 -3.18671,1.17295 -4.30995,3.0849 -6.05131,4.97437 -1.30964,1.41329 -3.8661,5.14743 -8.92349,13.03332 -7.99826,12.47155 -10.25421,14.74952 -17.28887,17.45939 l -1.59473,0.61444 3.94808,0.0129 c 4.98724,0.0164 8.75827,-0.52997 12.51086,-1.81333 1.60604,-0.54924 3.12878,-1.09296 3.38429,-1.20767 0.43495,-0.19526 0.46457,0.17638 0.46457,5.82496 v 6.03374 l -1.0883,3.71089 c -0.59859,2.04101 -1.24429,3.80339 -1.12022,3.91655 l 11.33665,7.95869 c 0.16282,-0.006 2.81404,-1.83104 5.89163,-4.05453 l 5.59552,-4.04265 -1.13274,-3.84317 -1.13224,-3.84266 -0.0336,-29.10469 3.51762,-5.22449 c 4.16573,-6.18776 6.46117,-8.66086 9.30382,-10.02316 1.08391,-0.51945 2.90091,-0.76553 2.63485,-0.94446 -0.24815,-0.16688 -2.47599,-0.27533 -4.29986,-0.49266 -1.72544,-0.20558 -3.62244,-0.30019 -5.51078,-0.29507 z m 42.780845,59.4899 c -0.521182,0 -20.896215,6.88893 -20.896405,7.0727 l 5.69475,7.90934 -0.0419,15.0151 h 2.89181 c 6.05339,0 14.935543,-1.31078 17.946708,-2.64842 0.58401,-0.25943 1.643364,-0.72473 2.35386,-1.03404 1.721776,-0.74957 4.426784,-2.70248 5.258594,-3.79667 1.338162,-1.76026 1.546159,-2.44387 1.546159,-5.08238 v -2.50062 l 5.552763,-7.78919 c 0,0 -19.936907,-7.14582 -20.306385,-7.14582 z m 37.043216,6.71846 -6.810437,10.46538 5.574854,6.14756 2.915068,7.04918 c 1.60333,3.87719 2.978317,7.0497 3.055628,7.0497 0.07732,0 0.927111,-0.42976 1.888257,-0.95498 4.091135,-2.23557 6.493085,-4.84366 7.493082,-8.13594 0.802163,-2.64096 0.597115,-4.8349 -0.77463,-8.29717 -0.995612,-2.51291 -0.983531,-2.37967 -0.983531,-2.37967 -0.547642,-8.07292 -0.492612,-8.01792 -0.547642,-8.07292 z m -76.129201,2.35024 -1.68362,1.16014 c -0.92612,0.63805 -2.16156,1.39 -2.74557,1.6707 -0.58401,0.28069 -2.92799,1.63274 -5.20846,3.00446 l -4.146,2.49391 1.29707,3.68401 1.29708,3.6835 -0.0708,6.37377 -0.0708,6.37325 -1.46038,0.49765 c -0.80303,0.27384 -2.53483,0.71938 -3.84886,0.9896 -2.42734,0.46664 -7.36967,0.2974 -1.32757,0.66973 5.4817,0.92142 9.0248,2.37406 12.13415,4.9754 2.65432,2.22068 5.09313,6.28439 5.98723,9.97666 l 0.54686,3.5361 0.37505,-3.6255 c 0.25365,-1.09624 0.5865,-2.22717 0.73948,-2.51303 0.27408,-0.51276 0.80813,-0.51986 36.371428,-0.51986 h 36.093405 v -6.4885 -6.48849 l 1.333251,-3.78995 c 0.733303,-2.08459 1.284129,-3.91884 1.223698,-4.07623 -0.106143,-0.27666 -12.365614,-7.8998 -13.250354,-8.2393 -0.247108,-0.0948 -0.758651,0.0605 -1.176671,0.35709 -1.249826,0.88673 -6.762213,4.16695 -8.302853,4.94078 -0.801327,0.40248 -1.517721,0.82626 -1.592151,0.94155 -0.07447,0.11531 -0.750901,0.58653 -1.503267,1.04748 l -1.367875,0.83819 1.30121,3.72381 c 0.715868,2.04801 1.301732,4.08138 1.301732,4.51858 v 0.79479 l -17.055806,-0.0956 c -16.762197,-0.0938 -17.092577,-0.10572 -19.179707,-0.69556 -1.16803,-0.33011 -2.81352,-0.90801 -3.65714,-1.28416 l -1.53428,-0.68368 0.0429,-5.73402 0.0429,-5.73453 1.29191,-3.71605 c 0.71052,-2.04405 1.29188,-3.84655 1.29191,-4.00544 3e-5,-0.15888 -1.88108,-1.43667 -4.18063,-2.83911 -2.29955,-1.40244 -5.33485,-3.26327 -6.7448,-4.13566 z m -28.20396,0.78703 -10.06037,7.26675 c -0.004,0.14598 0.57374,1.9117 1.28416,3.92379 l 1.29139,3.65817 -1.42317,11.87111 c -0.78284,6.52911 -1.42527,12.08445 -1.42627,12.34498 -0.002,0.4164 0.16605,0.45264 1.39113,0.30231 2.05363,-0.25203 4.69559,-1.22469 6.40065,-2.35644 4.03727,-2.67979 7.48013,-8.31554 9.08833,-14.87816 0.62408,-2.10566 0.50383,-4.50888 0.69897,-6.7097 l 2.68997,-8.10025 z"
         style="fill:#000000;fill-opacity:1;stroke-width:0.26546088" />
    </g>
  </g>
</svg>
